<svg xmlns="http://www.w3.org/2000/svg" version="1.1" xmlns:xlink="http://www.w3.org/1999/xlink" xmlns:svgjs="http://svgjs.dev/svgjs" viewBox="0 0 800 800"><defs><linearGradient x1="50%" y1="0%" x2="50%" y2="100%" id="ssscribble-grad"><stop stop-color="hsl(0, 0%, 0%)" stop-opacity="1" offset="0%"></stop><stop stop-color="hsl(0, 0%, 0%)" stop-opacity="1" offset="100%"></stop></linearGradient></defs><g fill="none" stroke-width="1.5" stroke="url(#ssscribble-grad)" stroke-linecap="round"><path d="M937.42 187.68C1040.84 220.54 1093.58 244.82 1084.74 269.01 1020.74 304 917.05 359 800.22 449.22 691.6 562.58 611.58 703.7 568.35 839.73 563.56 917.07 588.41 907.16 629.46 796.37 683.73 654.08 732.31 559.51 767.2 606.3 798.45 890.74 766.67 822.9 722.45 642.89 688.71 800.27 654.22 1035.91 621.36 1089.68 588.5 897.2 558.83 680.09 530.59 668.25 499.9 861.82 466 1046.25 424.68 1042.99 375.2 858.01 312.57 649.92 234.93 568.74 149.4 649.18 53.64 805.9 -43.69 921.83 -127.81 940.22 -191.62 849.89 -221.05 707.36 -212.03 550.88 -161.49 433.78 -76.95 364.78 58.28 330.35 118.54 325 -14.57 287.02 -135.37 254.16 -234.01 200.26 -284.96 132.86 -280.71 73.62 -220.43 19.66 -122.43 -5.78 -6.49 6.25 103.33 69.23 189.56 175.05 244.48 266.95 265.28 310.13 259.13 248.7 228.84 89.71 190.03 -105.97 153.52 -220.65 103 -84.42 79.89 43.46 103.07 -264.36 124.19 -265.26 152 -54.85 184.86 137.66 217.72 83.97 254.08 -144.99 294.93 -289.74 337.95 -202.78 389.26 27.27 451.04 181.97 518.03 140.57 597.1 -35.73 685.79 -183.07 772.94 -195.68 858.93 -62.17 932.29 123.17 981.51 277.05 999.67 334.16 978.96 307.49 926.96 222.12 846.59 135.11 754.74 78.69 680.82 45.4 639.26 50.18 647.68 77.15 711.32 114.92 816.61 154.81 937.42 187.68Q937.42 187.68 937.42 187.68" opacity="0.08"></path><path d="M903.42 243.58C1000.71 274.09 1055.21 322.28 1056.99 390.23 1009.85 462.24 923.38 557.39 817.95 668.24 710.55 764.95 619.84 842.03 556.3 865.76 523.62 825.5 519.88 721.3 536.78 591.47 572.4 516.96 612.02 544.9 646.95 694.36 693 953.22 712.12 723.67 690.29 625.19 670.7 801.71 644.96 1014.42 614.45 1055.68 583.93 881.4 550.1 667.94 512.13 614.48 472.3 759.06 425.03 956.27 368.44 1034.25 307.14 936.25 234.67 737.12 152.7 574.08 70.74 530.76 -12.68 611.2 -88.29 740.97 -145.18 857.75 -177.62 895.66 -176.71 854.76 -144.95 753.09 -81.6 629.08 3.43 515.79 86.49 410.75 155.59 335.13 190.95 282.94 177.4 239.23 116.71 205.2 19.42 174.69 -92.9 144.17 -187.65 118.62 -243.43 104.78 -253.27 99.41 -212.9 119.52 -134.55 171.67 -32.66 232.08 73.76 305.84 168.23 360.5 242.91 354.39 290.34 272.7 312.32 115.94 310.36 -53.83 293.67 -170.46 271.31 -158.95 240.97 -27.7 216.07 144.06 200.97 219.72 185.62 12.14 214.88 -106.27 255.75 171.66 286.26 130.47 325.12 -76.03 372.1 -240.81 420.17 -217.27 477.98 -26.59 545.06 167.08 613.04 225.6 688.19 123.95 765.56 -38.61 834.94 -156.32 895.44 -148.11 937.4 -33.63 955.41 136.18 944.16 284.2 901.25 371.5 838.56 394.82 759.49 368.01 679.97 324.18 623.98 266.21 600.98 226.57 622.59 212.09 690.15 201.68 791.09 213.07 903.42 243.58Q903.42 243.58 903.42 243.58" opacity="0.78"></path><path d="M869.42 490.94C960.35 519.11 1015.59 566.61 1026.41 628.12 994.92 684.53 926.17 742.68 835.17 785.48 734.82 799.86 640.92 774.25 564.5 700.92 509.86 609.37 479.97 514.48 471.05 465.13 481.89 503.25 503.01 631.81 526.75 812.29 556.31 953.22 579.7 981.82 593.57 868.44 606.45 693.31 608.41 575.22 599.61 619.03 589.87 804.07 570.79 991.78 542.62 1021.68 514.45 865.34 478.54 660.14 435.15 572.86 390.84 662.92 337.64 846.01 275.95 979.05 213.27 976.51 143.49 839.75 70.51 659.15 3.37 520.86 -58.18 485.98 -105.94 541.68 -133.94 654.88 -137.44 760.42 -112.12 820.89 -65.03 833.11 3.59 793.59 83.3 726.29 153.66 637.99 206.37 553.31 226.99 484.5 205.3 415.6 144.35 366.33 53.42 338.16 -50.36 309.99 -140.44 304.25 -199.26 320.02 -220.84 335.71 -198.82 369.15 -140.69 408.64 -56.53 427.14 39.77 420.29 133.93 364.68 219.03 260.81 285.41 114.84 331.04 -35.27 356.71 -127.92 365.69 -126.45 364.24 -17.51 351.72 133.75 338.05 245.27 328.41 227.2 314.37 -26.01 333.66 -50.44 370.3 205.66 398.47 175.83 436.53 -6.14 483.29 -180.35 530.04 -213.33 585.09 -79.23 646.04 116.54 704.49 250.59 764.54 247.27 820.47 135.67 865.34 -15.47 896.8 -110.65 908.04 -111.86 899.33 -25.59 866.34 109.72 810.57 244.68 745.74 361.42 674.69 433.42 611.18 467.86 573.69 473.87 567.7 466.95 600.15 463.67 669.85 455.27 765.63 462.77 869.42 490.94Q869.42 490.94 869.42 490.94" opacity="0.92"></path><path d="M835.42 626.96C947.26 664.78 949.92 700.5 849.63 662.94 761.02 616.84 670.87 548.08 589.45 472.5 520.76 425.75 470.59 421.02 438.65 483.69 423.98 606.16 422.22 764.06 427.8 899.58 442.15 949.36 456.15 887.33 465.64 736.29 477.06 589.95 480.61 534.66 474.78 622.91 468.96 806.49 453.44 967.95 427.62 987.68 401.8 848.91 366.9 656.05 324.04 543.84 281.17 579.49 230.65 726.93 174.49 882.27 120.25 959.66 63.73 912.75 9.59 777.03 -35.77 611.03 -71.09 487.23 -90.25 437.61 -92.15 463.04 -72.59 536.23 -30.79 618.75 23.73 699.24 90.72 746.5 160.41 759.63 216.13 750.17 252.73 720.18 260.17 683.34 231.99 640.39 171.76 603.13 87.42 577.31 -7.75 551.49 -92.44 538.32 -152.56 532.59 -183.43 520.73 -177.61 503.76 -139.11 468.49 -74.75 410.62 6.34 320.85 92.66 200.58 178.69 78.26 254.6 -32 316.09 -91.29 363.78 -75.53 396.28 17.62 416.8 156.74 426.4 265.59 430.4 289.38 433.33 193.09 433.2 -62.23 459.77 7.04 493.8 239.65 519.62 219.99 553.61 63.78 594.13 -109.84 633.87 -188.17 678.38 -118.21 724.49 47.04 766.3 217.02 804.82 302.22 835.02 279.34 854.29 170.71 858.86 43.42 845.01 -45.21 817.36 -74.04 772.06 -32.25 712.92 54.29 653.48 169.66 595.54 280.93 550.1 371.78 530.53 450.24 539.41 504.89 580.23 543.03 650.32 574.73 740.25 601.14 835.42 626.96Q835.42 626.96 835.42 626.96" opacity="0.38"></path><path d="M801.46 485.14C905.88 511.31 934.07 473.2 859.15 416.24 785.59 384.63 704.95 360.72 626.01 363.34 551.94 405.63 489.57 492.67 440.87 619.54 376.87 808.79 359.25 513.43 350.16 634.78 342.72 808.01 327.76 942.86 304.29 953.69 280.82 832 249.95 654.92 213.12 527.2 176.94 513.7 136.23 611.85 93.67 757.32 54.57 882.01 17.51 921.14 -13.28 867.2 -35.15 743.49 -45.26 599.65 -39.95 480.71 -22.02 405.66 12.52 386.64 62.14 408.17 116.65 461.53 176.23 519.8 232.58 566.55 272.87 610.31 294.37 633.08 290.5 636.7 257.52 636.24 198.99 622.88 121.46 599.41 34.94 575.93 -43.7 543.46 -103.5 499.66 -141.1 451.77 -148.87 386.3 -128.42 301.86 -84.28 214.44 -21.56 117.51 51.1 27.98 129.63 -29.72 205.47 -44.4 273.45 -0.11 334.22 88.05 383.53 204.07 421.97 303.34 451.92 332.83 474.3 272.65 492.13 130.76 505.5 -31.91 518.45 -143.42 533.45 -138.98 547.34 -20.32 565.5 152 588.97 273.69 612.44 262.86 640.11 132.76 670.49 -31.4 699.75 -141.03 729.5 -132.98 756.81 -20.71 779.67 142.26 795.94 280.04 802.17 344.46 799.9 323.63 784.3 240.54 754.3 138.7 717.08 42.6 669.07 -10.73 614.99 -16.85 566.75 16.7 525.08 79.26 498.14 151.55 494.89 233.97 516.01 307.09 562.66 364.56 631.5 421.22 714.91 461.66 801.42 485.13Q801.46 485.14 801.46 485.14" opacity="0.74"></path><path d="M767.07 238.97C837.65 260.09 889.4 269.35 917.47 270.26 922.53 274.94 902.6 279.19 862.08 292.24 805.45 321.35 738.58 372.62 668.36 452.03 597.1 548.34 531.27 660.68 474 768.81 424.02 842.84 384.02 866.49 352.94 823.11 328.93 727.71 310.75 603.08 295.86 497.27 284.55 462.59 273.18 517.99 259.74 651.99 247.19 807.62 230.79 916.32 209.67 919.58 188.55 814.37 163.7 655.78 136.4 521.88 110.01 468.62 82.95 512.86 57.64 623.24 27.62 804.03 14.12 791.75 41.25 627.31 70.84 508.06 111.62 415.15 160.88 356.3 209.11 327.96 257.03 326.06 298.17 337.16 323.21 361.15 331.11 381.77 317.9 391.41 281.68 402.43 225.65 398.4 155.07 377.27 77.23 356.16 5.23 318.94 -52.61 268.09 -94.3 218.62 -112.58 159.57 -107.59 98.97 -82.44 51.25 -39.14 18.34 16.35 14.11 81.04 40.39 148.51 102.97 213.75 194.52 277.45 283.62 334.24 353.91 382.92 372.97 426.6 322.41 462.92 207.82 493.12 59.37 519.91 -66.49 543.27 -122.78 564.76 -77.71 585.24 48 605.75 202.31 626.87 307.55 648 304.35 668.73 199.95 688.09 52.48 706.44 -73.38 721.52 -116.79 731.34 -66.64 737.74 54.63 736.22 198.21 725.09 315.62 708.97 381 682.51 382.4 646.5 336.07 608.95 255.63 566.52 173.61 523.83 109.86 478.15 54.76 481.95 94.67 546.95 146.92 612.95 185.85 689.23 217.84 767.07 238.97Q767.07 238.97 767.07 238.97" opacity="0.74"></path><path d="M733.45 190.03C796.77 208.81 845.41 233.25 875.72 264.99 888.52 299.68 881.13 346.65 856.08 408.38 816.5 475.58 765.64 556.59 708.54 644.81 646.79 722.59 585.61 786.45 528.37 819.33 473.72 811.94 425.61 759.62 384.54 667.83 347.78 565.73 316.99 473.99 291.08 426.7 267.9 448.08 247.4 537.36 228.36 672.11 210.11 804.83 191.81 888.65 173.03 885.66 154.26 796.19 135.89 658 118.72 526.6 102.35 445.74 88.69 440.15 79.33 501.43 72.7 608.45 72.56 718.9 80.39 799.93 92.51 838.43 113.66 823.47 143.7 766.91 176.33 679.39 215.24 582.24 257.44 491.99 294.99 408.49 329.01 344.98 354.83 300.31 366.12 267.16 362.82 245.55 342.77 229.14 305.22 216.26 252.77 201.84 189.45 183.06 120.35 164.28 55.43 142.03 0.79 119.51 -55.69 94.22 -55.68 116.98 -6.52 187.83 40.52 249.14 93.66 319.33 148.7 382.24 206.12 414.19 260.95 406.89 311.02 348.83 359.48 248.25 402.25 120.96 439.1 0.18 474.11 -74.86 504.32 -79.95 530.16 -6.34 555.35 117.81 577.34 252.19 596.12 341.66 614.9 344.64 629.58 264.63 639.81 139.16 651.36 -27.63 640.63 40.78 615.2 216.73 594.06 328.07 566.2 402.65 533.38 434.65 502.96 426.39 472.08 389.48 444.58 340.64 427.22 281.37 419.54 231.28 424.96 196.62 446.34 167.44 482.94 154.63 533.71 155.34 595.59 159.02 664.31 171.24 733.41 190.02Q733.45 190.03 733.45 190.03" opacity="0.68"></path><path d="M699.41 398.05C802.83 430.92 851.56 513.94 840.71 627.54 782.49 718.2 690.93 772.99 592.89 722.42 491.82 590.69 406.34 432.23 341.68 401.85 282.88 564.78 237.77 797.95 204.9 851.65 163.29 550.58 181.21 649.37 256.31 793.19 311.28 733.21 367.98 601.69 402.12 480.75 388.88 361.82 326.83 287.08 223.41 254.21 102.61 221.35 9.35 233.49 -34.33 295.46 -32.02 359.46 17.95 439.69 93.1 456.61 185.34 355.1 274.78 149.49 347.85 -28.62 419.35 -20.65 473.16 183.13 506.02 375.65 543.28 212.03 497.93 114.38 429.68 385.83 397.61 479.47 382.48 475.97 404.25 442.25 472.03 385.61 578.61 365.19 699.41 398.05Q699.41 398.05 699.41 398.05" opacity="0.78"></path><path d="M665.46 608.43C782.09 656.79 756.32 674.04 653.61 525.56 570.9 413.21 493.64 351.64 431.18 421.5 370.1 602.46 323.97 787.8 295.8 817.69 267.64 661.35 260.1 457.35 272.37 361.36 286.01 416.62 319.32 555.75 365.11 673.51 400.96 740.65 430.97 726.86 439.02 673.8 411.22 596.36 348.37 532.06 257.46 503.9 153.67 475.73 68.43 486.36 17.7 514.99 -2.32 519.24 15.62 489.07 58.72 385.02 119.73 230.35 186.64 61.35 246.1 -14.57 307.68 60.73 355.6 253.29 383.76 409.66 411.94 379.83 417.69 205.92 404.92 45.58 394.28 -3.65 371.33 87.78 347.23 237.05 341.04 393.64 352.96 495.21 393.63 545.18 465 566.98 561.64 580.26 665.42 608.42Q665.46 608.43 665.46 608.43" opacity="0.66"></path><path d="M631.46 563.72C708.98 587.19 759.32 581.67 778.56 542.91 773.36 497.45 742.69 420.4 697.57 340.78 641.23 310.47 583.31 349.11 533.15 475.23 481.66 639.76 441.72 772.87 418.25 783.69 394.78 662 389.99 486.6 400.81 359.16 410.29 324.93 431.58 380.25 457.15 469.95 471.51 573.46 477.28 638.97 465.28 661.13 428.83 666.26 368.98 649.79 291.46 626.32 204.94 602.85 130.5 574.6 78.85 528.79 45.32 465.95 39.22 363.82 54.57 229.55 84.18 109.09 123.84 28.86 163.59 45.86 206.73 156.08 242.98 321.95 266.45 443.66 289.93 432.89 298.4 309.32 295.94 161.97 296.86 53.04 293.83 39.28 294.99 100.36 310.39 210.74 341.38 324.42 392.11 410.57 460.96 490 544.91 540.24 631.42 563.71Q631.46 563.72 631.46 563.72" opacity="0.95"></path><path d="M597.28 318.54C660.62 337.31 706.34 328.18 731.68 300.6 742.42 281.56 734.79 264.13 714.38 272.37 685.12 320.29 650.73 415.24 617.96 545.53 583.09 669.61 554.1 752.57 535.32 749.64 516.54 660.18 509.75 523.57 512.08 397.3 514.85 296.35 511.7 377.96 481.05 442.18 441.95 479.51 388.62 490.42 325.28 471.64 256.18 452.86 194.73 406.18 147.55 336.31 109.36 267.04 89.07 182.75 84.91 106.63 89.62 65.48 104.86 73.41 125.05 146.68 148.06 259.18 170.86 388.18 189.64 477.64 208.42 480.57 221.4 405.22 230.93 294.91 243.28 178.38 257.35 103.34 277.24 80.03 306.02 96.41 346.22 143.15 398.18 194.73 459.12 254.84 528.18 299.76 597.28 318.54Q597.28 318.54 597.28 318.54" opacity="0.54"></path><path d="M563.46 173.11C654.37 201.27 698.14 241.38 697.64 349.21 676.65 505.17 639.34 685.8 611.18 715.69 583.01 559.33 569.31 357.95 553.39 255.96 516.97 238.62 450.37 257.46 359.46 229.29 255.66 201.12 180.18 131.29 148.9 111.71 133.88 176.79 148.21 355.33 176.38 511.69 204.54 481.8 241.21 324.01 293.15 204.96 361.35 134.05 459.66 144.94 563.46 173.11Q563.46 173.11 563.46 173.11" opacity="0.64"></path><path d="M529.42 305.36C644.36 342.92 660.8 599.89 623.25 681.68 585.69 452.46 508.36 233.41 393.42 195.85 255.96 158.3 193.29 316.46 230.85 545.68 268.4 463.89 391.96 267.81 529.42 305.36Q529.42 305.36 529.42 305.36" opacity="0.39"></path></g></svg>