<svg xmlns="http://www.w3.org/2000/svg" version="1.1" xmlns:xlink="http://www.w3.org/1999/xlink" xmlns:svgjs="http://svgjs.dev/svgjs" viewBox="0 0 800 800"><defs><linearGradient x1="50%" y1="0%" x2="50%" y2="100%" id="ssspill-grad"><stop stop-color="hsl(50, 83%, 50%)" stop-opacity="1" offset="45%"></stop><stop stop-color="hsl(37, 91%, 55%)" stop-opacity="1" offset="100%"></stop></linearGradient><filter id="ssspot-filter" x="-20%" y="-20%" width="140%" height="140%" filterUnits="objectBoundingBox" primitiveUnits="userSpaceOnUse" color-interpolation-filters="sRGB">
	<feTurbulence type="turbulence" baseFrequency="0.022 0.218" numOctaves="2" seed="322" stitchTiles="stitch" x="0%" y="0%" width="100%" height="100%" result="turbulence"></feTurbulence>
	<feGaussianBlur stdDeviation="0 3" x="0%" y="0%" width="100%" height="100%" in="turbulence" edgeMode="duplicate" result="blur"></feGaussianBlur>
	<feDisplacementMap in="SourceGraphic" in2="blur" scale="32" xChannelSelector="R" yChannelSelector="B" x="0%" y="0%" width="100%" height="100%" result="displacementMap"></feDisplacementMap>
</filter></defs><rect width="100%" height="100%" fill="hsl(0, 0%, 100%)"></rect><g fill="url(#ssspill-grad)" filter="url(#ssspot-filter)"><circle r="5.031366333120916" cx="651.7264262816069" cy="457.49133199178686" opacity="0.9340601571240118"></circle><circle r="5.77160888931588" cx="756.4073197692538" cy="329.7480436124468" opacity="0.6477755854761942"></circle><circle r="6.34544439628908" cx="628.7848579025364" cy="669.3993413047813" opacity="0.3848986468751997"></circle><circle r="6.843514905725717" cx="596.2166682475378" cy="26.156114264557758" opacity="0.6480134949947858"></circle><circle r="2.6156530932570914" cx="562.1769079961674" cy="514.8833412822366" opacity="0.262282260951801"></circle><circle r="5.214740757301528" cx="54.40492593803551" cy="229.13071923603562" opacity="0.8630422912432834"></circle><circle r="3.813178519447625" cx="753.7185745286619" cy="33.050498137674005" opacity="0.13393293991076607"></circle><circle r="7.7048086638785955" cx="562.3677014356203" cy="73.33477676425713" opacity="0.4044013362559671"></circle><circle r="2.8876587146498407" cx="644.2193469789295" cy="33.29746376840538" opacity="0.9987497025823233"></circle><circle r="7.647538034996137" cx="129.62737654729207" cy="537.3359793961401" opacity="0.400841254899031"></circle><circle r="4.259116267333768" cx="358.56554724655695" cy="295.6873256823706" opacity="0.8033673348143249"></circle><circle r="5.547893664352756" cx="414.84779171377903" cy="241.02484563068202" opacity="0.3478458118358607"></circle><circle r="4.642286355292162" cx="540.7253154386818" cy="370.60914023598934" opacity="0.38971075724870063"></circle><circle r="5.202474165075708" cx="176.74226813832658" cy="681.7916068393358" opacity="0.2542620612279298"></circle><circle r="6.401737546316586" cx="278.95056286378497" cy="485.7996460199644" opacity="0.544536854634113"></circle><circle r="7.866570927872686" cx="708.5857711687275" cy="412.67823441997626" opacity="0.7787172626721264"></circle><circle r="5.609028910226849" cx="351.0736189569058" cy="19.13021293013352" opacity="0.25622105517263893"></circle><circle r="6.8269496986977565" cx="467.1615273720545" cy="449.0638041504357" opacity="0.6423508382764991"></circle><circle r="7.897486147109798" cx="652.3033128052169" cy="641.7813620033962" opacity="0.8407405892529471"></circle><circle r="6.638640578048052" cx="597.3203319211776" cy="640.3977370272383" opacity="0.1618401557518243"></circle><circle r="4.507467158822408" cx="44.2360401769876" cy="502.79021615058946" opacity="0.7767636132554858"></circle><circle r="4.660389786673731" cx="370.76942100971326" cy="585.3985382668229" opacity="0.5466038227238346"></circle><circle r="7.051042727898963" cx="265.4475371328069" cy="430.6101952001926" opacity="0.8330994014075652"></circle><circle r="5.302212169632755" cx="691.2564786641512" cy="64.73221168254223" opacity="0.8437815915997147"></circle><circle r="3.98215231013118" cx="601.9128761662265" cy="412.6898823902358" opacity="0.21945285195105535"></circle><circle r="5.3690368861946265" cx="48.256834214988174" cy="65.20705440281264" opacity="0.3558866192360862"></circle><circle r="5.38983284315905" cx="91.07980828264769" cy="532.3216985830423" opacity="0.36183722834486975"></circle><circle r="4.360360970152557" cx="408.06683188138794" cy="340.31661387089207" opacity="0.2582926500157888"></circle><circle r="6.375483002098232" cx="572.0610621072431" cy="560.4612007737517" opacity="0.3353018022544004"></circle><circle r="4.328919173259096" cx="71.59336446449265" cy="510.723885271051" opacity="0.24139942285013224"></circle><circle r="6.111990192726491" cx="405.4197491569335" cy="205.53458883326687" opacity="0.4549451619406064"></circle><circle r="3.8477636977379848" cx="344.9565314094563" cy="484.27932309886285" opacity="0.14016247978281998"></circle><circle r="7.601495088080243" cx="246.28945427089465" cy="126.88588595156807" opacity="0.5812985163549037"></circle><circle r="7.426062097474102" cx="784.5092375953709" cy="111.1002536664108" opacity="0.8532844917056056"></circle><circle r="5.499150513860572" cx="456.53335336281384" cy="670.0726336485662" opacity="0.33572785094378055"></circle><circle r="7.047712039454984" cx="47.29779300592285" cy="127.12951353635933" opacity="0.9943943804614166"></circle><circle r="4.486932549395684" cx="647.1315642074185" cy="77.9437473309676" opacity="0.43401621025775283"></circle><circle r="3.848685438389347" cx="551.0878206892714" cy="232.45004901024183" opacity="0.7668614447136995"></circle><circle r="5.839794976695069" cx="787.2120807836922" cy="565.5140460748618" opacity="0.2772236807576319"></circle><circle r="4.15505048116662" cx="216.15700240464977" cy="181.58939065367537" opacity="0.8864492743867853"></circle><circle r="9.90404691752839" cx="393.0470090945755" cy="437.1869070258143" opacity="0.6506139994930649"></circle><circle r="6.044310582420214" cx="434.03547322950544" cy="262.0357753969188" opacity="0.9222405459036278"></circle><circle r="4.108648748163272" cx="364.83997745462204" cy="351.92527481376845" opacity="0.4323678684056491"></circle><circle r="6.367258880917329" cx="317.0909990834574" cy="749.3110256981179" opacity="0.10687938662110287"></circle><circle r="5.764247772677463" cx="727.1107974287414" cy="529.8537972022821" opacity="0.6054066384763941"></circle><circle r="6.0172112642574165" cx="16.182514340488268" cy="777.5931386902129" opacity="0.6265962114663283"></circle><circle r="7.330926765228977" cx="89.44295056389409" cy="233.60554167418485" opacity="0.5781864798596559"></circle><circle r="2.752865367090287" cx="747.848665643284" cy="205.620254176125" opacity="0.8890096075925503"></circle><circle r="4.288970957717299" cx="394.0902009987463" cy="611.2927072620773" opacity="0.8686874008530638"></circle><circle r="5.1845001670814295" cx="113.77753991753599" cy="454.9993322917643" opacity="0.6135368150985437"></circle><circle r="3.704447153143633" cx="789.0993715596207" cy="535.3667305109656" opacity="0.8931721801115068"></circle><circle r="5.110171521323291" cx="563.7910371263075" cy="713.6963245645728" opacity="0.6808512448596413"></circle><circle r="6.129407658040943" cx="14.436911888848625" cy="503.26802768014016" opacity="0.8310156138095993"></circle><circle r="8.626797821638728" cx="280.23507542048566" cy="252.83684012912985" opacity="0.5540805715649284"></circle><circle r="5.287979187097025" cx="564.3610404938316" cy="14.296801789503839" opacity="0.7457718753295869"></circle><circle r="3.705923884668952" cx="16.52257055451389" cy="235.69800555214852" opacity="0.19037989414702844"></circle><circle r="3.7563637282667557" cx="631.8919191729342" cy="389.7082756304257" opacity="0.5682668033615544"></circle><circle r="6.196144776479098" cx="572.8218347726407" cy="494.88241782967646" opacity="0.9833927292478055"></circle><circle r="4.9695398787383" cx="535.5915436728401" cy="440.6800324423618" opacity="0.8755531921064567"></circle><circle r="6.446124234489674" cx="437.1475134379543" cy="504.79332801580443" opacity="0.2677329098791055"></circle><circle r="3.705627254772656" cx="300.53718297955726" cy="531.4962175991486" opacity="0.4063182116851125"></circle><circle r="8.589602594705523" cx="236.83040046861953" cy="734.6359414442221" opacity="0.9270503686128969"></circle><circle r="5.083544995624437" cx="145.42592875758595" cy="430.6911734190215" opacity="0.8957126010185101"></circle><circle r="3.1406444813249825" cx="153.2252748093045" cy="647.7819336129344" opacity="0.9662899998653511"></circle><circle r="8.811949470716389" cx="87.90958547965676" cy="195.66594591967794" opacity="0.5365496976045084"></circle><circle r="2.980259624781153" cx="414.493225321373" cy="303.45267943771677" opacity="0.1571118208710669"></circle><circle r="5.9959833363428885" cx="262.86951773717544" cy="625.9047946860577" opacity="0.8926720202500993"></circle><circle r="6.164373757625442" cx="189.75945035734455" cy="706.8740483244995" opacity="0.9931883958706076"></circle><circle r="4.944232098760638" cx="424.9575774991995" cy="117.86020446146465" opacity="0.2904972689179981"></circle><circle r="4.622381761378362" cx="14.796428788969592" cy="155.97089561023023" opacity="0.5929357484823075"></circle><circle r="6.010099702674035" cx="783.8723028343856" cy="470.78953724766603" opacity="0.22421660739207327"></circle><circle r="6.091924453522573" cx="176.28481905020286" cy="73.85191247304921" opacity="0.20058335289632073"></circle><circle r="5.534097424211939" cx="52.244122239692636" cy="472.6040824116" opacity="0.48870860483105216"></circle><circle r="3.3811972914284274" cx="250.3456525767861" cy="98.67759699931914" opacity="0.9237438010528259"></circle><circle r="5.7314564674855" cx="78.8554573397857" cy="459.9635273492444" opacity="0.6212353537153481"></circle><circle r="9.076111170288444" cx="172.05912513964464" cy="468.2187721407356" opacity="0.4202169878364973"></circle><circle r="9.65333767670641" cx="247.06416350460637" cy="215.06700769717733" opacity="0.15932537461039836"></circle><circle r="2.7117716799943468" cx="271.923039862324" cy="352.4422136500537" opacity="0.19325769409809707"></circle><circle r="5.463002692989561" cx="639.0674359927015" cy="418.19212740180296" opacity="0.3862269744888003"></circle><circle r="8.940361235772775" cx="302.47567032279517" cy="408.1383798513108" opacity="0.4270280714297149"></circle><circle r="6.224595634983219" cx="102.16489222084658" cy="596.3139999621054" opacity="0.995575300155026"></circle><circle r="7.719137435687928" cx="338.931696767255" cy="604.6614224140795" opacity="0.47866184766873043"></circle><circle r="5.874714071878547" cx="89.05637565110486" cy="11.825032175882857" opacity="0.1830995566467271"></circle><circle r="10.214612448877753" cx="668.4971607798166" cy="272.2094136614262" opacity="0.454217642793319"></circle><circle r="6.57907311134647" cx="626.8200994737667" cy="221.22806919800405" opacity="0.9467736796405306"></circle><circle r="4.651316146436366" cx="443.92183924779664" cy="145.58864132748784" opacity="0.6716464678487298"></circle><circle r="6.835799346274812" cx="723.5336456046629" cy="561.6728016594961" opacity="0.5890066967402315"></circle><circle r="7.872444717462836" cx="682.6936392207772" cy="721.6945669988845" opacity="0.662502032757422"></circle><circle r="7.088878200208479" cx="91.56383205292619" cy="678.5182431002994" opacity="0.6876966147043314"></circle><circle r="5.256591207657625" cx="122.3313251896318" cy="266.7247898275458" opacity="0.21514718015071016"></circle><circle r="4.524901681934844" cx="788.2239094276729" cy="405.9872535024395" opacity="0.6891976727481656"></circle><circle r="5.253183712197021" cx="461.53364056416007" cy="616.428318368015" opacity="0.32221211464817795"></circle><circle r="3.6532107767203548" cx="511.3098996638473" cy="267.58213287826504" opacity="0.8272543979549883"></circle><circle r="4.547308562799792" cx="157.2575456609173" cy="669.7492506295833" opacity="0.7539055785493114"></circle><circle r="4.524702363712671" cx="383.6476500302041" cy="177.8697346911937" opacity="0.7218420314050499"></circle><circle r="6.601974955781625" cx="660.2257410947383" cy="228.1849683779309" opacity="0.5331533404830818"></circle><circle r="4.44805160236777" cx="154.1508054726216" cy="28.93059408522402" opacity="0.9460748150074803"></circle><circle r="4.093910174396356" cx="756.096786283033" cy="496.07067680086766" opacity="0.4678180489663166"></circle><circle r="4.5901538967221125" cx="764.6351994597899" cy="378.1900593568087" opacity="0.27490802338603176"></circle><circle r="7.114504894762396" cx="277.45839853326856" cy="703.5401954161048" opacity="0.8545781849343118"></circle><circle r="5.3925010840395995" cx="264.7549120724857" cy="14.625490296994135" opacity="0.38732139870240956"></circle><circle r="6.907917936956203" cx="309.93701749272515" cy="120.21882131696333" opacity="0.9664554505977914"></circle><circle r="3.2410301058030258" cx="341.793542489254" cy="339.89188608417066" opacity="0.4790297353374905"></circle><circle r="9.181185584543275" cx="471.75485887389783" cy="74.26824039832908" opacity="0.12883514602272686"></circle><circle r="6.596759482450603" cx="661.6356260397421" cy="785.2420765624738" opacity="0.5189183641712766"></circle><circle r="5.783695060163993" cx="76.58380341684882" cy="155.69865858332975" opacity="0.8031152031337653"></circle><circle r="7.339651666878013" cx="342.63681778771473" cy="184.94891886294596" opacity="0.8869826194738382"></circle><circle r="6.669180785118293" cx="223.08048225147377" cy="699.7779381546387" opacity="0.918576325029159"></circle><circle r="7.265353163623558" cx="218.1673979454853" cy="254.95968564815388" opacity="0.5125424758752772"></circle><circle r="4.992806753115636" cx="250.69718920382837" cy="327.1288363786413" opacity="0.22551002355097347"></circle><circle r="2.7549572932605724" cx="118.33838764658836" cy="5.588481828514295" opacity="0.38353150954924886"></circle><circle r="6.875167505550406" cx="178.850950025002" cy="310.18497514241346" opacity="0.6844040874815676"></circle><circle r="5.326211920619333" cx="251.84090249178269" cy="701.7079722003194" opacity="0.7675774889322943"></circle><circle r="4.560927183794927" cx="76.36767237211491" cy="52.36803333332715" opacity="0.7485605736093409"></circle><circle r="5.76626269568764" cx="504.25338400554085" cy="335.0774629568653" opacity="0.4353282958190545"></circle><circle r="3.400330947752137" cx="346.4498549646271" cy="364.4203812678237" opacity="0.928840156620491"></circle><circle r="5.941255041946486" cx="199.15894230305582" cy="409.6350036020573" opacity="0.9865854240571834"></circle><circle r="5.886146457179192" cx="180.24573544977162" cy="599.5191936098129" opacity="0.9078357423615213"></circle><circle r="5.102874632530589" cx="95.32055886688572" cy="420.459446806394" opacity="0.6067436562658443"></circle><circle r="5.703291794232307" cx="390.9463104292659" cy="269.5319211320143" opacity="0.8329777935853523"></circle><circle r="6.196693801919809" cx="566.094818882175" cy="271.9515288105019" opacity="0.90825527314708"></circle><circle r="4.677145728513278" cx="494.5139614948049" cy="761.9157852208642" opacity="0.2642482276026633"></circle><circle r="5.4267080341609235" cx="467.1576677045029" cy="115.71776104982274" opacity="0.849757676688535"></circle><circle r="4.062814520810871" cx="602.458517101267" cy="472.4151680026802" opacity="0.9564561433979524"></circle><circle r="5.366305405228324" cx="214.99180884127" cy="637.5722614690833" opacity="0.33877858369351044"></circle><circle r="4.774136452013373" cx="330.18577341079566" cy="385.72069542476504" opacity="0.26975516193112686"></circle><circle r="5.681011588590225" cx="132.76225345347876" cy="197.27504475947853" opacity="0.15985432878786743"></circle><circle r="3.886278411419297" cx="209.86769710160365" cy="604.4263382137848" opacity="0.24981646270623972"></circle><circle r="5.988980416216818" cx="17.787955574209068" cy="98.7409379977286" opacity="0.5307638710357429"></circle><circle r="5.422381265949359" cx="421.28730365567355" cy="625.190153841918" opacity="0.6230530813998931"></circle><circle r="7.652184537617851" cx="544.2289242565756" cy="749.2291791296904" opacity="0.5837885807011977"></circle><circle r="3.4449526689438805" cx="33.568902025936886" cy="791.6697582028604" opacity="0.7493965798796492"></circle><circle r="7.057183313556697" cx="421.8552196447474" cy="543.2752505433245" opacity="0.5704476408281288"></circle><circle r="6.302298979923474" cx="108.13819958869301" cy="152.98978502606602" opacity="0.9552657203218975"></circle><circle r="3.7315735522994466" cx="195.4254218701962" cy="31.53742014313718" opacity="0.5391266304371108"></circle><circle r="6.187503996019885" cx="494.018720003449" cy="738.1829810483832" opacity="0.40956023945110986"></circle><circle r="4.999453035834297" cx="127.06857833031233" cy="604.7850415835918" opacity="0.8775732560371515"></circle><circle r="3.5169978178886665" cx="287.5588058969987" cy="101.05757591386299" opacity="0.6874960824786396"></circle><circle r="7.0249843763290425" cx="16.13800104345795" cy="39.2583741812213" opacity="0.572123413078875"></circle><circle r="4.39767335758033" cx="399.494455453782" cy="534.2162661726325" opacity="0.2139778144876287"></circle><circle r="7.7781110119075585" cx="546.6569962814049" cy="405.87747168178237" opacity="0.5197207998322838"></circle><circle r="5.366799497005981" cx="431.94218596648216" cy="387.07085635837734" opacity="0.5387464767056536"></circle><circle r="3.5558050130507546" cx="755.990769450217" cy="787.9585030796477" opacity="0.1819171224222229"></circle><circle r="5.061937209218186" cx="749.1019838481324" cy="579.8764849260104" opacity="0.27756043932775754"></circle><circle r="4.748169051844013" cx="295.74076019334836" cy="675.8326967526076" opacity="0.5722402745939941"></circle><circle r="5.783196617337259" cx="358.7243871490145" cy="517.1848560787989" opacity="0.7295427210232199"></circle><circle r="10.729210639578863" cx="427.45515718618634" cy="701.8398223119663" opacity="0.4434941143005473"></circle><circle r="3.752541703559472" cx="640.3786854667092" cy="731.298677492469" opacity="0.5031098363152325"></circle><circle r="4.764690028430186" cx="457.0966158433652" cy="752.5543044301779" opacity="0.7417581864797788"></circle><circle r="4.462270360183389" cx="460.7484731303361" cy="587.4801465207044" opacity="0.2859880238254825"></circle><circle r="5.00490787369988" cx="194.78425602794567" cy="658.9445454377296" opacity="0.4099789367752994"></circle><circle r="7.144335895982356" cx="608.4980745406617" cy="698.3709108838607" opacity="0.6861462972298478"></circle><circle r="3.3648175221103553" cx="7.371411990335368" cy="270.21274441426726" opacity="0.6149531184450683"></circle><circle r="5.768435556607422" cx="750.7470498358852" cy="452.1274785654596" opacity="0.22326738985684338"></circle><circle r="4.027162248392968" cx="477.1098234585644" cy="261.72812595883715" opacity="0.34205411505101424"></circle><circle r="6.253119351110836" cx="60.38058652280342" cy="692.766371660478" opacity="0.17452957485502985"></circle><circle r="6.190938862289492" cx="712.7920515757714" cy="125.65988746761928" opacity="0.8379071548032405"></circle><circle r="7.258075531508673" cx="716.5793198206867" cy="179.6985622986698" opacity="0.8804598257986618"></circle><circle r="3.88829570545023" cx="784.5489992608566" cy="440.117570677238" opacity="0.6475285950677157"></circle><circle r="7.636585264997205" cx="237.12225536007836" cy="611.7968877891843" opacity="0.8039455148648418"></circle><circle r="6.758352837690781" cx="605.2681406533416" cy="496.82432650369793" opacity="0.2814147737530188"></circle><circle r="4.531504621892296" cx="87.6866557546024" cy="559.1831730316912" opacity="0.24600349863784884"></circle><circle r="6.183511430433802" cx="699.6322160938253" cy="508.53491562420203" opacity="0.6723363260429642"></circle><circle r="4.199175434274478" cx="284.1719698727529" cy="78.73683317865517" opacity="0.4151819780258653"></circle><circle r="4.51330872392051" cx="444.0496265639177" cy="640.0047019337734" opacity="0.1574680118111959"></circle><circle r="4.270605040975418" cx="413.9051804629207" cy="162.25556361164226" opacity="0.39890084367402445"></circle><circle r="6.09171293520844" cx="231.12972393749246" cy="531.0028822375617" opacity="0.9302474390264939"></circle><circle r="7.031451676414971" cx="528.6296392953379" cy="483.6407370292993" opacity="0.17875290366135077"></circle><circle r="9.297317564310315" cx="341.4672845370986" cy="554.982639480581" opacity="0.10717407209365222"></circle><circle r="5.1218289620048" cx="726.730174161191" cy="685.6217910787685" opacity="0.9915026528428366"></circle><circle r="7.7288950404425485" cx="330.57715986701726" cy="442.553995412291" opacity="0.6524606930791883"></circle><circle r="6.543213098287215" cx="191.7335866225022" cy="136.24104235210143" opacity="0.4787274654923045"></circle><circle r="5.030854688772409" cx="676.6451028601892" cy="193.40559443036585" opacity="0.7834595556702125"></circle><circle r="8.804027289976176" cx="613.1729270800811" cy="105.89044414862664" opacity="0.8865457531750371"></circle><circle r="6.182094780588456" cx="653.1992110281925" cy="363.0981924129217" opacity="0.8259984555232688"></circle><circle r="3.2684750346021962" cx="175.9924629622748" cy="650.1444098639602" opacity="0.856401252380812"></circle><circle r="3.1252145572207644" cx="8.55715957275321" cy="214.74716620143877" opacity="0.5943395475900085"></circle><circle r="8.385293150261274" cx="443.3637040207434" cy="45.233961858317464" opacity="0.8013727591659782"></circle><circle r="4.504662790648466" cx="731.697674586358" cy="745.3357817917235" opacity="0.8739157784137658"></circle><circle r="4.0920576861896825" cx="602.655790151038" cy="780.6353498741043" opacity="0.9268325938487524"></circle><circle r="4.915498404249468" cx="430.36982374896644" cy="86.07748574171727" opacity="0.7306326987441225"></circle><circle r="4.110105289508516" cx="665.8440313088422" cy="94.79399973294056" opacity="0.5296861305458973"></circle><circle r="7.00850912476775" cx="342.6710643338133" cy="265.1966557788676" opacity="0.8643114891356767"></circle><circle r="7.652056364423977" cx="683.3285839819999" cy="466.443925393307" opacity="0.8144894718016186"></circle><circle r="3.6955437420559454" cx="340.0049067835622" cy="414.9304305782622" opacity="0.2507639596993491"></circle><circle r="5.119150314045699" cx="736.0367034793309" cy="661.1814652648933" opacity="0.5378199714575204"></circle><circle r="3.542199712916273" cx="233.30261861127224" cy="369.2257166505814" opacity="0.2989455861343892"></circle><circle r="4.637463391514401" cx="742.2977882459405" cy="476.82952517227824" opacity="0.6283225123964931"></circle><circle r="6.77700684998514" cx="191.85123468158903" cy="232.66120505994945" opacity="0.5298338926681013"></circle><circle r="8.529572803877107" cx="70.76806086565746" cy="636.754958939682" opacity="0.5690692345356775"></circle><circle r="5.966127578574612" cx="196.94393202437124" cy="541.7917106916935" opacity="0.4742513285818467"></circle><circle r="7.897373781589962" cx="485.5450341180166" cy="297.8529991516258" opacity="0.6944477757055906"></circle><circle r="6.74190703679156" cx="342.85452826569747" cy="722.1141858087711" opacity="0.48549955325934224"></circle><circle r="3.8907805049849653" cx="242.36862806760064" cy="349.1575460111349" opacity="0.5405211736058975"></circle><circle r="5.950720511063172" cx="162.60739598624994" cy="104.82326694187918" opacity="0.20294215169638757"></circle><circle r="5.963025745294816" cx="638.7046195025102" cy="757.1489114179499" opacity="0.8579313116614702"></circle><circle r="5.007577649852779" cx="357.70322534735124" cy="325.36190689577825" opacity="0.10252746334788672"></circle><circle r="4.885159134164324" cx="767.2662010728314" cy="140.82796303653637" opacity="0.1802628990813821"></circle><circle r="3.89144301348418" cx="715.1569839364295" cy="39.26626841860763" opacity="0.49883787202103913"></circle><circle r="5.745630902301606" cx="109.85935040077027" cy="331.0950603104643" opacity="0.14091305796408155"></circle><circle r="4.506357301682233" cx="675.2227369939657" cy="754.3842641960117" opacity="0.4884092461761018"></circle><circle r="5.822304515444449" cx="213.87463044928913" cy="672.6041292731705" opacity="0.9499039744314639"></circle><circle r="6.9891948012545" cx="623.5111089945133" cy="615.4561339998633" opacity="0.49587746357098983"></circle><circle r="4.925053601222979" cx="101.55566469652771" cy="36.19794829242127" opacity="0.45245650391772974"></circle><circle r="5.045889919133161" cx="54.65496489612495" cy="295.5362044902913" opacity="0.3803789847024518"></circle><circle r="5.156257741793868" cx="110.28637168175057" cy="104.43971849431189" opacity="0.11269993567040634"></circle><circle r="4.906480984722759" cx="365.67405070648834" cy="407.1552354460612" opacity="0.5994919193650127"></circle><circle r="4.991349778777513" cx="387.3670946139923" cy="238.651250327248" opacity="0.24782186705901726"></circle><circle r="6.140102711580321" cx="285.95665827340804" cy="559.7547753774088" opacity="0.8739931583522486"></circle><circle r="7.312309232676977" cx="55.26802088830019" cy="408.8283234909742" opacity="0.9056436378833288"></circle><circle r="4.171002969269175" cx="466.16524320542845" cy="721.5935503672811" opacity="0.1390966271022552"></circle><circle r="5.488209952542926" cx="494.9895537953686" cy="239.98532068133306" opacity="0.9741083510657474"></circle><circle r="4.973484024975528" cx="303.56644468050825" cy="321.19843366705106" opacity="0.24547833354057277"></circle><circle r="7.705108846872015" cx="467.84337831802264" cy="223.65912663120844" opacity="0.610413895648383"></circle><circle r="6.978119961327349" cx="562.0566639517826" cy="619.6628721809003" opacity="0.12376398661296305"></circle><circle r="3.8230957792024336" cx="573.6891753956048" cy="397.8520183084173" opacity="0.9610113191752789"></circle><circle r="3.417271447424378" cx="740.7098327252279" cy="67.73365402449562" opacity="0.5480499220270993"></circle><circle r="7.24410721716484" cx="101.63246652454656" cy="69.54746469198729" opacity="0.28809618916224067"></circle><circle r="5.69949522600118" cx="128.22530098830535" cy="480.7390766361266" opacity="0.9930690429004505"></circle><circle r="4.345388312738796" cx="706.4648749529573" cy="744.183707162254" opacity="0.2744609596902525"></circle><circle r="5.66402458858048" cx="469.99818648206724" cy="525.0817190122116" opacity="0.12499430192356382"></circle><circle r="5.786175527862902" cx="723.2925620001217" cy="713.3181300665651" opacity="0.12140801981512636"></circle><circle r="5.590003516761545" cx="689.85025099287" cy="361.54701359064313" opacity="0.8690223037802871"></circle><circle r="7.4838869297948225" cx="315.46036453182666" cy="282.22068837716057" opacity="0.7815305570144617"></circle><circle r="5.852165860214008" cx="202.91052138201684" cy="441.4726037120575" opacity="0.7649534669628669"></circle><circle r="6.46198551516351" cx="426.87622320696966" cy="753.0241712202451" opacity="0.1361013298854719"></circle><circle r="4.197810225315272" cx="772.4188903058566" cy="356.05425322589156" opacity="0.8921848652966404"></circle><circle r="4.094852156868031" cx="642.6119293253729" cy="585.1189475246545" opacity="0.139200269755887"></circle><circle r="4.324982705361225" cx="304.08244524580755" cy="783.5771026475059" opacity="0.6879242682624491"></circle><circle r="7.447910732844171" cx="388.41981319973235" cy="26.00538153629187" opacity="0.16255499487170183"></circle><circle r="6.599701826720024" cx="443.8730947569962" cy="352.84382169598985" opacity="0.46882219417395077"></circle><circle r="5.1460895932566775" cx="384.8165745694547" cy="353.3202894510451" opacity="0.4225931594702804"></circle><circle r="4.927767018015732" cx="321.04031074995265" cy="633.8165365620375" opacity="0.252138443385973"></circle><circle r="5.626982021269374" cx="79.34430500370652" cy="385.6294387885253" opacity="0.4012705220908024"></circle><circle r="7.332812157611205" cx="327.4554461760109" cy="521.7848054580564" opacity="0.9998286070562482"></circle><circle r="6.356332729042039" cx="40.296515037487055" cy="265.2026071716133" opacity="0.7229728173781742"></circle><circle r="2.6685578766443285" cx="792.0980658281758" cy="359.9707684765611" opacity="0.9309356815162729"></circle><circle r="3.8335408061329233" cx="762.2192965756382" cy="551.4506077902798" opacity="0.9770505007827179"></circle><circle r="6.832418799268545" cx="754.5933570352231" cy="724.1428360793981" opacity="0.25790476033453336"></circle><circle r="7.589374097887567" cx="12.998195752856395" cy="590.6960973199333" opacity="0.1434043590516681"></circle><circle r="6.361090830890882" cx="676.6954247916143" cy="137.40265820390272" opacity="0.26108947542371397"></circle><circle r="5.698905033781191" cx="783.6732674640108" cy="706.6421895622445" opacity="0.6484819276739837"></circle><circle r="3.5988147750297554" cx="497.81032137648515" cy="788.3029876045853" opacity="0.5381479766277318"></circle><circle r="5.8202396280217155" cx="648.4136504390414" cy="706.1086565703855" opacity="0.428913839733437"></circle><circle r="5.225994544216448" cx="472.4127553457236" cy="334.5674701819088" opacity="0.2976456696803045"></circle><circle r="4.830054232606186" cx="358.3076411873636" cy="457.39403358994144" opacity="0.6148230128844556"></circle><circle r="5.472118954594006" cx="503.2200697953559" cy="611.3259989977806" opacity="0.5408033191460903"></circle><circle r="7.151247070193967" cx="463.01946634460325" cy="785.0511699952556" opacity="0.856476098335804"></circle><circle r="5.5512778417282815" cx="400.34316063774264" cy="65.18706042980301" opacity="0.39293184509617207"></circle><circle r="7.21678464868152" cx="138.51863288037313" cy="76.78799784153358" opacity="0.21499891441379815"></circle><circle r="5.469015828233166" cx="782.639283481272" cy="293.5894842127902" opacity="0.7902898140564159"></circle><circle r="5.427397149118418" cx="337.3197324484397" cy="211.6484685710465" opacity="0.41537622014049114"></circle><circle r="4.269639549406314" cx="790.8585717677481" cy="649.1644878596024" opacity="0.6426833044977179"></circle><circle r="3.987498792725779" cx="281.1631916751087" cy="373.47618732962763" opacity="0.2888043821680202"></circle><circle r="4.4193258046806125" cx="8.00489534387085" cy="307.32044842815225" opacity="0.6400029584018393"></circle><circle r="5.2799795321821" cx="680.9885138518192" cy="389.50894096612865" opacity="0.4606726595357251"></circle><circle r="2.9053522443324153" cx="256.1229231061212" cy="649.8519645788351" opacity="0.6624630581747237"></circle><circle r="3.502196249546482" cx="18.304565690475002" cy="283.56647100593455" opacity="0.337082200505181"></circle><circle r="3.9251731024014522" cx="415.2655600799886" cy="597.1196101043819" opacity="0.8847423374294537"></circle><circle r="11.378120695426931" cx="616.8363539942038" cy="277.9458622892821" opacity="0.7710185271846074"></circle><circle r="8.698750634892294" cx="314.19420732880485" cy="578.4604287821409" opacity="0.4507979594246978"></circle><circle r="6.359569836106963" cx="782.8595021207545" cy="756.7267863559847" opacity="0.3877991972110453"></circle><circle r="7.306612337675375" cx="368.66150945437704" cy="784.5614644092216" opacity="0.29648378797515973"></circle><circle r="5.668477682745397" cx="390.5677396266303" cy="513.403314974819" opacity="0.4850124648069728"></circle><circle r="9.126957937611298" cx="389.3038080518376" cy="480.5017991835094" opacity="0.2554062701635807"></circle><circle r="3.7893448681271393" cx="214.05840451992967" cy="367.7974001944892" opacity="0.7663091335017641"></circle><circle r="3.8466069904018236" cx="117.63979468592805" cy="715.9745496045521" opacity="0.8505688882017914"></circle><circle r="5.314479836814906" cx="292.20661548026766" cy="452.9077340595453" opacity="0.9840164031169449"></circle><circle r="3.634752778429914" cx="581.6510102231503" cy="377.3128115761952" opacity="0.9867575601383924"></circle><circle r="7.6544950801648" cx="24.554731479042573" cy="540.5371041528805" opacity="0.2653965373928175"></circle><circle r="6.5385125321697535" cx="577.1039203289855" cy="761.2158687052802" opacity="0.2627542432276885"></circle><circle r="8.527894719018283" cx="587.6681921408326" cy="236.21298700479113" opacity="0.7945651988839215"></circle><circle r="7.901019623915877" cx="51.90062142464162" cy="332.64351206766344" opacity="0.2501248996523123"></circle><circle r="4.7886733646076935" cx="370.46611613076414" cy="625.9774919797748" opacity="0.8640340702887082"></circle><circle r="4.426529711124752" cx="475.0518417581676" cy="694.0133535025802" opacity="0.3573316999477727"></circle><circle r="5.336774588629801" cx="669.7738869122502" cy="595.2619511999278" opacity="0.2676691349966142"></circle><circle r="6.112815339187193" cx="740.3320715065341" cy="245.98412703163336" opacity="0.15987416901111193"></circle><circle r="7.311786053380242" cx="550.7963390593286" cy="650.3274805788556" opacity="0.20216138141970355"></circle><circle r="2.779558047089395" cx="695.5447579404769" cy="792.1381018271709" opacity="0.2493212126197736"></circle><circle r="3.809526756090277" cx="582.30125723257" cy="140.69550094363976" opacity="0.10439924955086581"></circle><circle r="5.27320996769273" cx="523.6799352424996" cy="554.0097691498115" opacity="0.5416150912807106"></circle><circle r="3.931682005988039" cx="770.4139120388867" cy="419.2591919074137" opacity="0.5882104154774832"></circle><circle r="5.03564484563136" cx="428.74646999820834" cy="176.37618312817887" opacity="0.29456244378014473"></circle><circle r="7.332669540081227" cx="413.968951105501" cy="655.4909231311968" opacity="0.2653060756440214"></circle><circle r="5.216710059150123" cx="785.9187735504672" cy="186.79398136578496" opacity="0.5525545189935579"></circle><circle r="4.473500184865386" cx="146.96871518906076" cy="166.37669480011425" opacity="0.49679160228428265"></circle><circle r="6.287068073050948" cx="16.708031818639956" cy="464.2318698750765" opacity="0.6658781382361904"></circle><circle r="5.65116837923015" cx="717.3270104927584" cy="13.311656650411463" opacity="0.89365698668272"></circle><circle r="2.5859753639410847" cx="409.8010412925809" cy="396.03315192965664" opacity="0.44163668036438364"></circle><circle r="9.48843870955413" cx="388.098809781522" cy="685.4180384638876" opacity="0.5937781311705081"></circle><circle r="4.401725691022667" cx="606.8060691497151" cy="149.97922682820587" opacity="0.7296202104417067"></circle><circle r="8.392780012691343" cx="135.27257829403698" cy="750.2601760665029" opacity="0.6711536939364661"></circle><circle r="6.92452423478305" cx="22.334181731314583" cy="325.06820168830853" opacity="0.41593872901576856"></circle><circle r="6.3726350585896885" cx="745.4366453891085" cy="103.66731689803045" opacity="0.4070742092161467"></circle><circle r="5.349581769241407" cx="378.06006861373436" cy="329.21386869518" opacity="0.75880117961089"></circle><circle r="8.241287574719424" cx="598.9071359267386" cy="735.1420120731889" opacity="0.17248618612439143"></circle><circle r="7.500625152113313" cx="546.7913532359114" cy="198.65258920925908" opacity="0.5910128005100578"></circle><circle r="5.965218283517173" cx="521.4178869374105" cy="666.8427703477872" opacity="0.8933481156923864"></circle><circle r="7.93498208256565" cx="129.13101437196244" cy="670.3592126015237" opacity="0.9834318476290036"></circle><circle r="4.091307629730025" cx="190.00103760074225" cy="10.156989030886574" opacity="0.7033384207157843"></circle><circle r="5.061529942846637" cx="566.4503788523838" cy="349.4226188275787" opacity="0.59242351911126"></circle><circle r="5.835150935184482" cx="411.23617645210817" cy="361.9533650486725" opacity="0.5001342664517786"></circle><circle r="6.262317063035217" cx="451.4310354813344" cy="542.8675442867763" opacity="0.4673383706341482"></circle><circle r="5.04209181542233" cx="121.86642536113702" cy="21.68332234819963" opacity="0.7473782179560464"></circle><circle r="3.797233696795481" cx="360.817260382955" cy="653.3247131640115" opacity="0.41508966770302236"></circle><circle r="5.069227230495372" cx="488.38553732107675" cy="145.2222664787546" opacity="0.49653317566880806"></circle><circle r="4.401596266185757" cx="110.38512008301913" cy="506.0609088897631" opacity="0.6441880065447467"></circle><circle r="3.951153159972213" cx="277.82121019223644" cy="516.5007609888039" opacity="0.8370551819705273"></circle><circle r="3.778555323490005" cx="106.85046626426212" cy="374.8514228739118" opacity="0.7910811726163861"></circle><circle r="4.135777323493199" cx="715.2412191930044" cy="83.44594375357988" opacity="0.7041452179944372"></circle><circle r="5.008312458255311" cx="362.5382355588031" cy="152.8545559237265" opacity="0.8724899042177713"></circle><circle r="7.83808632112655" cx="136.20585593880213" cy="307.0394185392126" opacity="0.9655668022537442"></circle><circle r="4.490265918864908" cx="133.71544371475437" cy="128.72281023710582" opacity="0.5717344840805758"></circle><circle r="3.4084650575872937" cx="693.82636159569" cy="8.416621889131518" opacity="0.32817532942315375"></circle><circle r="7.8254352136945515" cx="649.0168634468871" cy="492.2312639295472" opacity="0.40673992944027226"></circle><circle r="6.0668522597113" cx="564.3866285052303" cy="430.02973052446123" opacity="0.24266748445548067"></circle><circle r="3.1991844603771376" cx="324.12752489796827" cy="352.17520209434286" opacity="0.7158396170583633"></circle><circle r="8.659642631907808" cx="174.49914729143933" cy="190.22672696971316" opacity="0.36951588729706597"></circle><circle r="4.084401186240676" cx="665.8169403134034" cy="23.903633594701247" opacity="0.7609538250575998"></circle><circle r="6.386187065025707" cx="27.336790320260302" cy="200.11509838902845" opacity="0.9590350522742127"></circle><circle r="5.239981154454507" cx="181.51790998976824" cy="507.74335482247056" opacity="0.8763751651510798"></circle><circle r="4.886604603544862" cx="572.1392070369503" cy="112.09321801345392" opacity="0.8604328460416212"></circle><circle r="11.154259545693826" cx="390.7806617460317" cy="732.5763998771209" opacity="0.9241343645287217"></circle><circle r="6.6831696778415335" cx="12.034966240673235" cy="422.4344196104606" opacity="0.18336523378813946"></circle><circle r="9.788226129339677" cx="493.38785135516974" cy="27.818093724787758" opacity="0.5719852762872745"></circle><circle r="5.72257154789745" cx="169.58866152673986" cy="347.3670903641953" opacity="0.1960178433287765"></circle><circle r="4.333628947638017" cx="141.3177153511497" cy="350.55863783131974" opacity="0.6956954638270219"></circle><circle r="6.601035038949214" cx="607.3702601091716" cy="531.510920289292" opacity="0.8630913761935136"></circle><circle r="5.495136056104675" cx="530.8017977761162" cy="249.06394016500153" opacity="0.46032734365233796"></circle><circle r="6.819210638226243" cx="312.9709564789758" cy="487.9413001721547" opacity="0.16667196842134263"></circle><circle r="3.4038381238067967" cx="249.15779003760667" cy="72.35221291085625" opacity="0.8626031461324863"></circle><circle r="3.8075586916115203" cx="693.7469564957486" cy="772.9119240073882" opacity="0.9858976564946261"></circle><circle r="7.136617733619481" cx="151.5117449770483" cy="502.6902476793147" opacity="0.5706378910321979"></circle><circle r="5.7198585151150825" cx="209.36966242541766" cy="110.10938073416084" opacity="0.7794388974370806"></circle><circle r="1.945252905683654" cx="147.45127031358243" cy="7.740837653836383" opacity="0.8061371697837699"></circle><circle r="4.660008121998743" cx="134.1875943484605" cy="635.2049920565046" opacity="0.2813303462730299"></circle><circle r="6.902410435855845" cx="696.2588192076223" cy="682.3946672400031" opacity="0.2709578428778664"></circle><circle r="6.657119659146113" cx="163.91253456607575" cy="780.9866412478663" opacity="0.9342792715471777"></circle><circle r="3.4072945366741147" cx="201.29126892623503" cy="56.00103357123251" opacity="0.5073430306512987"></circle><circle r="4.295045608648341" cx="250.20737785950382" cy="676.9240443456305" opacity="0.9861995806239802"></circle><circle r="6.211828626211515" cx="151.91264789245423" cy="605.5682473114193" opacity="0.5214573280920369"></circle><circle r="3.3856870998881043" cx="438.7218076586705" cy="198.76063893758536" opacity="0.9416121898822791"></circle><circle r="3.233400602954801" cx="302.31472820668023" cy="618.8803667004188" opacity="0.808704563187022"></circle><circle r="3.169168117932222" cx="557.1431083887975" cy="538.2095434135142" opacity="0.17619695847868871"></circle><circle r="7.633866068086149" cx="713.6004801842128" cy="445.287590337586" opacity="0.6576949223912147"></circle><circle r="2.9254032757117665" cx="163.8075864494893" cy="627.9124312334396" opacity="0.7479489619494437"></circle><circle r="3.805859770565026" cx="787.1024067756779" cy="731.0027573185653" opacity="0.22183418943191924"></circle><circle r="8.087922379893785" cx="530.3356865085532" cy="292.907234389526" opacity="0.8924888632760092"></circle><circle r="3.232670217574747" cx="789.0743134511622" cy="382.55359161098403" opacity="0.4639026138164165"></circle><circle r="4.074461852050949" cx="691.8798115823424" cy="230.06101211486208" opacity="0.4844343381449988"></circle><circle r="4.225898627195134" cx="718.6340812870847" cy="369.9494616939335" opacity="0.2775959416350483"></circle><circle r="3.4584237098485398" cx="23.01961474373071" cy="251.4236986313796" opacity="0.3208947480539704"></circle><circle r="3.8953083668953967" cx="475.1975700058472" cy="639.5917609859008" opacity="0.4978492507293717"></circle><circle r="5.887698064977472" cx="761.9057531112632" cy="523.3334985337664" opacity="0.48402441246827177"></circle><circle r="2.960984505170146" cx="62.93971246122923" cy="793.5404496276757" opacity="0.7147155370343623"></circle><circle r="5.155811921570361" cx="366.3660142823453" cy="377.7317423356076" opacity="0.9026083026329048"></circle><circle r="5.814106820438288" cx="220.68848173760122" cy="77.56897935974582" opacity="0.7952164821490648"></circle><circle r="5.887740745183095" cx="82.48619239712868" cy="343.846145752183" opacity="0.6121664055671353"></circle><circle r="7.907452673291573" cx="689.1074280274461" cy="634.9066475986742" opacity="0.30461070327144735"></circle><circle r="6.7200014638762315" cx="526.6849697473414" cy="625.282428915569" opacity="0.31722406626911015"></circle><circle r="6.239703146419432" cx="47.345668771882224" cy="174.1625803463287" opacity="0.825500068427743"></circle><circle r="6.293265295145192" cx="714.2462860723214" cy="479.8516792737073" opacity="0.8535406585039685"></circle><circle r="3.742543012988669" cx="302.9793270626925" cy="360.94058733977937" opacity="0.8899332546516401"></circle><circle r="8.81238210112101" cx="24.834372934102532" cy="681.9641996597284" opacity="0.3185721471742568"></circle><circle r="8.912476385012802" cx="718.747891482677" cy="273.8829835705377" opacity="0.8988425570817964"></circle><circle r="2.758908710258654" cx="271.6466255720317" cy="669.6934329453213" opacity="0.23126717850477813"></circle><circle r="6.822452969497105" cx="515.8988425610112" cy="711.0123304523573" opacity="0.8658514160673223"></circle><circle r="5.2050996328948145" cx="297.2652973715372" cy="653.1139887198427" opacity="0.964706852498975"></circle><circle r="7.63421597703291" cx="42.310444712782434" cy="571.3638183441478" opacity="0.7702659793465756"></circle><circle r="5.54131115287032" cx="682.8329485139071" cy="553.4894787540976" opacity="0.6720350987063543"></circle><circle r="3.6294286885385008" cx="667.64444324663" cy="7.448728106891425" opacity="0.7800285239905314"></circle><circle r="3.785939439580865" cx="754.0831255959126" cy="398.998468882743" opacity="0.4017075010061494"></circle><circle r="5.479529405552008" cx="263.1453871919695" cy="168.7789246249071" opacity="0.1546011420110064"></circle><circle r="4.6524541030302355" cx="159.93259162659183" cy="237.72247685084866" opacity="0.19565813404674431"></circle><circle r="5.615705981436437" cx="162.50548719859862" cy="536.1672114666435" opacity="0.22388572933892154"></circle><circle r="4.524457334191015" cx="219.18357801241143" cy="473.69305729341085" opacity="0.27252176912588455"></circle><circle r="4.5999144363264755" cx="617.9862762450795" cy="341.0400907372205" opacity="0.23087488335599754"></circle><circle r="6.291549464054477" cx="538.8533946274872" cy="327.5117000499291" opacity="0.6502592700113184"></circle><circle r="6.6162266892298245" cx="674.1122972532803" cy="431.44349620375255" opacity="0.7671193734194597"></circle><circle r="4.23856211809153" cx="383.84779458261283" cy="559.6121807812781" opacity="0.4440856589063856"></circle><circle r="6.637063725294698" cx="654.9194800155069" cy="527.8363079798655" opacity="0.5500882572758777"></circle><circle r="5.645942267067106" cx="440.4635085230554" cy="597.5951839099321" opacity="0.9892258265214483"></circle><circle r="4.923112220981678" cx="474.18169171028404" cy="477.21838438110893" opacity="0.12185333552408656"></circle><circle r="4.2386354581464465" cx="468.5815953028142" cy="562.5510438220376" opacity="0.15077765097052248"></circle><circle r="6.204742444516942" cx="68.67098432916463" cy="591.5519892661462" opacity="0.7348560053335857"></circle><circle r="3.850844730921471" cx="138.0316584401273" cy="49.1319172875759" opacity="0.5611563533856456"></circle><circle r="6.324575765233339" cx="456.6322383482985" cy="280.9349785505776" opacity="0.493366809890349"></circle><circle r="4.231260333893183" cx="718.7117163553048" cy="340.12871169097565" opacity="0.9306900178649068"></circle><circle r="5.919775597335393" cx="437.7873941197993" cy="425.2190553167352" opacity="0.3281130934298011"></circle><circle r="5.850296959802277" cx="727.6168899911912" cy="628.7064623611102" opacity="0.715729786327073"></circle><circle r="5.179166012241894" cx="207.5652939222835" cy="209.0327766476708" opacity="0.43833670787162826"></circle><circle r="9.604082900030495" cx="383.67036015956114" cy="105.10215886622585" opacity="0.3744115850123647"></circle><circle r="6.970012899093858" cx="51.179677911865774" cy="369.1908215174759" opacity="0.6637674571872635"></circle><circle r="5.7099078034281625" cx="695.8897757663515" cy="315.2618565479619" opacity="0.8195388025016475"></circle><circle r="5.35079611879342" cx="769.6652646822248" cy="685.9533058091502" opacity="0.4356219262914852"></circle><circle r="7.037657121510112" cx="522.1146731883151" cy="153.30941237937182" opacity="0.798750516859592"></circle><circle r="4.195727987754747" cx="168.65564749128188" cy="403.3657318805767" opacity="0.13098051217027437"></circle><circle r="6.970550562206146" cx="325.416647068197" cy="659.7040150962637" opacity="0.6184028985771122"></circle><circle r="3.8337477047331743" cx="443.47501916952893" cy="317.4553847451846" opacity="0.716897503289143"></circle><circle r="6.157604374332734" cx="269.94658745238297" cy="395.8717727631141" opacity="0.23908756564512326"></circle><circle r="5.639718314766659" cx="634.2238218617191" cy="52.60878548729399" opacity="0.4038118600763837"></circle><circle r="5.5023456792996255" cx="134.5388162530897" cy="388.3205824556499" opacity="0.7336584567076964"></circle><circle r="5.033917809724705" cx="786.7784723284682" cy="330.3732845873296" opacity="0.18114339909578964"></circle><circle r="6.5064473210340275" cx="428.1183711002759" cy="570.4620620499161" opacity="0.815326625818369"></circle><circle r="7.186520172050541" cx="592.3968315655516" cy="442.04819308121677" opacity="0.20432403031413168"></circle><circle r="4.525862022892069" cx="483.0862062568745" cy="424.36902934369687" opacity="0.46347365759100934"></circle><circle r="5.184313500333561" cx="72.3049687290013" cy="100.41359212379398" opacity="0.9766219484504746"></circle><circle r="8.446316862917467" cx="510.1165650686919" cy="90.04539267175367" opacity="0.900675449659829"></circle><circle r="4.708361241101351" cx="373.64085822371976" cy="209.9709034892481" opacity="0.9065233879020146"></circle><circle r="6.031651835569361" cx="35.457513774801946" cy="751.6008158673769" opacity="0.6079029248069638"></circle><circle r="5.827124672856789" cx="558.0768132235553" cy="788.1697812355168" opacity="0.7896737849092037"></circle><circle r="6.960535888762433" cx="694.3953844038479" cy="103.14469764142962" opacity="0.4357936471660002"></circle><circle r="5.470664319003659" cx="285.84444604757056" cy="600.5340656704382" opacity="0.31085806609038735"></circle><circle r="5.657451468941593" cx="276.23875399659016" cy="327.5222293065424" opacity="0.11641721416748377"></circle><circle r="4.557147618646395" cx="246.48808336743875" cy="272.22001706572956" opacity="0.5475884360468631"></circle><circle r="3.4725233419156836" cx="733.9472769743244" cy="47.65380843964553" opacity="0.5711965969520948"></circle><circle r="4.727722906024189" cx="513.1880568272912" cy="187.72793523796395" opacity="0.259147167784632"></circle><circle r="6.138748299042568" cx="649.9468310940081" cy="319.4850500451579" opacity="0.23289171849954063"></circle><circle r="6.231580626852257" cx="317.81105091676693" cy="234.71106281586754" opacity="0.5758672821775888"></circle><circle r="5.5474468242679364" cx="713.56591606236" cy="150.9818290387502" opacity="0.6762798668708119"></circle><circle r="4.434334186373995" cx="263.50500649108193" cy="52.75924983662804" opacity="0.4718881819247679"></circle><circle r="3.983077676199371" cx="663.586305152858" cy="405.439594422655" opacity="0.6027317304346498"></circle><circle r="4.889455306736394" cx="627.1688426717492" cy="437.5990472068586" opacity="0.6160263768512027"></circle><circle r="5.769702862546783" cx="285.96062667316977" cy="735.8962920832408" opacity="0.151495076482084"></circle><circle r="6.124860415377641" cx="90.7614756748406" cy="299.59317297631964" opacity="0.737895131737971"></circle><circle r="6.331934326244783" cx="144.9580585845714" cy="703.669780469213" opacity="0.8027249561722877"></circle><circle r="4.025148440555579" cx="43.34000185548655" cy="437.58908362970567" opacity="0.38427423038997344"></circle><circle r="6.957183016782634" cx="502.867440903138" cy="374.9705376999921" opacity="0.4899610718898847"></circle><circle r="6.6563462465463745" cx="343.16088181471747" cy="131.64462952934383" opacity="0.974183561967897"></circle><circle r="3.336692832685762" cx="213.8790887193063" cy="390.1294048147368" opacity="0.3190249443086639"></circle><circle r="4.676617702187902" cx="785.3429261378514" cy="228.22270362704364" opacity="0.9188255532446752"></circle><circle r="5.364203865258263" cx="651.8536093915941" cy="117.40258697759548" opacity="0.19358512822070448"></circle><circle r="7.8820005108591005" cx="537.391732005209" cy="35.08789236796706" opacity="0.6043661207671627"></circle><circle r="3.197252971549057" cx="753.0931851294614" cy="223.5856009508481" opacity="0.4732409079234141"></circle><circle r="6.648724211045748" cx="579.8682403215821" cy="672.8692722865806" opacity="0.2750167127958393"></circle><circle r="5.3272271850652855" cx="725.1962410494417" cy="781.4088662826247" opacity="0.94156634902468"></circle><circle r="7.66769015420848" cx="311.46612839935136" cy="698.0057872363109" opacity="0.3300130057823063"></circle><circle r="8.567996107312556" cx="628.4193520025875" cy="177.7409790067162" opacity="0.2557937194159817"></circle><circle r="4.353744159241518" cx="512.6857991497997" cy="219.2333800814631" opacity="0.3234605049467242"></circle><circle r="4.317626484819691" cx="390.57037288934964" cy="374.41213166430117" opacity="0.46371931561073676"></circle><circle r="6.148781000338833" cx="540.9737846812599" cy="585.2113107861666" opacity="0.7635512801751041"></circle><circle r="5.234998658826458" cx="783.1583651093488" cy="22.558001908665666" opacity="0.7560980556811064"></circle><circle r="5.686764096071387" cx="465.9820114315597" cy="387.81236770074923" opacity="0.6099678473791057"></circle><circle r="5.088646083636981" cx="251.1538386209978" cy="375.42032932984597" opacity="0.44655485299459285"></circle><circle r="8.028352758057906" cx="511.2046981122761" cy="410.3380546291322" opacity="0.1949000075884444"></circle><circle r="9.353712463145573" cx="586.7714274592163" cy="594.0353653019748" opacity="0.8963895901548273"></circle><circle r="7.319988316970484" cx="257.17915586826166" cy="587.3107213710856" opacity="0.761077180246706"></circle><circle r="7.607798831242944" cx="588.1281205714063" cy="193.96447991161207" opacity="0.6320633496626246"></circle><circle r="3.2749488769274757" cx="308.4706071585952" cy="12.36904756135563" opacity="0.28200697186038703"></circle><circle r="8.144184807077098" cx="235.36102905301638" cy="30.41002045387966" opacity="0.10915478545341385"></circle><circle r="4.413725465251181" cx="715.9803953728261" cy="223.67294953469968" opacity="0.6559206103213516"></circle><circle r="6.251592229329928" cx="786.4837729723029" cy="597.5643363546623" opacity="0.35444107339533193"></circle><circle r="3.69263693171055" cx="189.59900416773485" cy="628.0821766113504" opacity="0.5213602951869137"></circle><circle r="3.9734906572926225" cx="289.81029902651073" cy="49.63999174983097" opacity="0.3507623753446174"></circle><circle r="4.4486835924657395" cx="439.302366911056" cy="228.6589571327305" opacity="0.9937510893048384"></circle><circle r="7.217781549328789" cx="221.40028455637133" cy="152.44575306880824" opacity="0.9775239621265417"></circle><circle r="7.835388248038475" cx="744.2642004213981" cy="301.94806377627646" opacity="0.8900091260941602"></circle><circle r="5.353423357016434" cx="168.27865277439258" cy="143.8726395423263" opacity="0.7167400323230878"></circle><circle r="4.68066897469121" cx="731.1899454746158" cy="388.3762335192138" opacity="0.2249204832610494"></circle><circle r="4.6500686243912925" cx="15.781719262125394" cy="360.1854408936927" opacity="0.9122616923542135"></circle><circle r="8.815016573182314" cx="36.685377437167965" cy="623.6181882295126" opacity="0.396951389480654"></circle><circle r="7.318943695470553" cx="563.7558844747399" cy="462.45965573172646" opacity="0.8463825067637804"></circle><circle r="3.1397201181063887" cx="592.9618867749471" cy="351.3185794519752" opacity="0.1845783285318988"></circle><circle r="6.21233964749856" cx="509.1314275382232" cy="454.29330880482206" opacity="0.6149364846482492"></circle><circle r="3.7308307944848536" cx="221.88844817397043" cy="336.2317946916927" opacity="0.11411794153912969"></circle><circle r="4.792785160761874" cx="198.5901506482606" cy="335.65879949850233" opacity="0.21409500065479634"></circle><circle r="9.45432809206172" cx="358.6960748429082" cy="62.066529587671226" opacity="0.392889089107725"></circle><circle r="9.894303821422302" cx="309.91810085220914" cy="164.4007055539473" opacity="0.5133011408037863"></circle><circle r="7.080867077782363" cx="581.8906561650787" cy="312.1155697485851" opacity="0.34679851885958307"></circle><circle r="7.9383498969181385" cx="772.6747162371938" cy="260.6783878823834" opacity="0.1771968686149264"></circle><circle r="6.736010262399159" cx="250.09581100926457" cy="509.2489945490518" opacity="0.9269835299645325"></circle><circle r="8.217268533154495" cx="250.2469706253746" cy="469.58083799241746" opacity="0.3463921799683297"></circle><circle r="5.6768281614928915" cx="496.84184758149894" cy="659.3346476933092" opacity="0.22789894916758413"></circle><circle r="5.930421822213872" cx="743.525482465076" cy="424.9676165012836" opacity="0.5088303436559568"></circle><circle r="6.416241529596959" cx="43.77961982533" cy="723.0191897901236" opacity="0.3638285476819133"></circle><circle r="5.525554325509846" cx="523.3415637354449" cy="772.2492575946034" opacity="0.5081923855680619"></circle><circle r="4.985963952253826" cx="631.3761745611137" cy="785.0710526851503" opacity="0.15187174783506358"></circle><circle r="5.101180535234934" cx="760.7001191645602" cy="166.9861309914628" opacity="0.40023469358014874"></circle><circle r="6.463664835317178" cx="433.12143638322465" cy="14.323596122217555" opacity="0.23287969168508393"></circle><circle r="5.248427697652712" cx="105.96592401955043" cy="641.3930617937044" opacity="0.9859842958511792"></circle><circle r="7.034979064184041" cx="667.0412674209482" cy="679.567807911518" opacity="0.47536174246673"></circle><circle r="6.68644069141277" cx="258.7278241720711" cy="775.4993998591854" opacity="0.2554613935422958"></circle><circle r="7.637934807610577" cx="48.65099258944039" cy="17.34167543099566" opacity="0.2797088649748015"></circle><circle r="6.708954484836417" cx="75.61465817544634" cy="267.75720605583" opacity="0.8681973043106077"></circle><circle r="4.0784072537386225" cx="235.33502871278034" cy="653.1514041503624" opacity="0.591010155307588"></circle><circle r="4.014095366733539" cx="347.92822491248904" cy="765.7963229138396" opacity="0.2179392213585832"></circle><circle r="6.73578642505761" cx="236.51591336237334" cy="415.74282409994765" opacity="0.8752228798811974"></circle><circle r="5.047027157805578" cx="462.1119438452463" cy="173.51032381986522" opacity="0.46759603214523227"></circle><circle r="5.146927873490679" cx="331.6562575608533" cy="315.26304896619644" opacity="0.33289483748752224"></circle><circle r="4.2438396722858664" cx="23.69550363725973" cy="394.5671338340588" opacity="0.41981229399497666"></circle><circle r="5.840820566636473" cx="14.340965302778676" cy="646.4890247223505" opacity="0.14252583673338018"></circle><circle r="7.4538946688086964" cx="707.9701649479749" cy="593.2772920421676" opacity="0.3632999981289652"></circle><circle r="4.454266594509637" cx="491.5964004982933" cy="501.0073122368481" opacity="0.33836243485483664"></circle><circle r="3.4880538129929377" cx="84.78855381730504" cy="785.4058209814513" opacity="0.6658943088923708"></circle><circle r="6.569939934073435" cx="172.7805605692531" cy="570.0873498154672" opacity="0.964634619175152"></circle><circle r="7.025557566876358" cx="342.21322916323885" cy="97.92652026802294" opacity="0.20077614342260286"></circle><circle r="6.492953420853679" cx="786.9981994013555" cy="503.9432787519959" opacity="0.16875960041522403"></circle><circle r="6.238828763881125" cx="670.5034235959995" cy="167.29372372933872" opacity="0.7438572376064214"></circle><circle r="4.607449743907117" cx="529.3579019083667" cy="516.6970002528219" opacity="0.1754062208925411"></circle><circle r="3.7205580902059014" cx="744.9015263278189" cy="9.343568046930603" opacity="0.8583305931363706"></circle><circle r="6.301056428727417" cx="125.47895305778133" cy="228.99898281320617" opacity="0.2857323923156433"></circle><circle r="6.147865567911936" cx="209.6008689026185" cy="505.74742646131267" opacity="0.1734244636031304"></circle><circle r="4.26816645836651" cx="429.4524267851554" cy="288.811892058609" opacity="0.725016558663927"></circle><circle r="4.43379252248355" cx="136.07006856387073" cy="569.6405920765426" opacity="0.34503695344870255"></circle><circle r="5.085807110238407" cx="766.8131764146791" cy="647.375827713854" opacity="0.9160238149178078"></circle><circle r="5.672544511255743" cx="543.2005430362968" cy="686.4644829229662" opacity="0.6147782629188808"></circle><circle r="5.484793923410642" cx="779.2269626473999" cy="68.57457977535354" opacity="0.6301393250138689"></circle><circle r="8.714112140669483" cx="212.16864051579503" cy="775.9992186705506" opacity="0.9310104991498154"></circle><circle r="7.583624643579279" cx="276.60758737773546" cy="294.3851786651891" opacity="0.24045936334304682"></circle><circle r="5.839923093356659" cx="359.2979064188545" cy="242.65868497977726" opacity="0.46819324050838196"></circle><circle r="6.618359472019915" cx="180.51823188030045" cy="739.4457018210896" opacity="0.2441314667909731"></circle><circle r="9.420920456946767" cx="605.520293414473" cy="65.79979092877711" opacity="0.8076961905442406"></circle><circle r="4.410345583862309" cx="116.90514403481626" cy="783.6686352920341" opacity="0.18177502270575718"></circle><circle r="3.6617263366532" cx="31.487687557807526" cy="296.62886135834214" opacity="0.5289760601227351"></circle><circle r="4.123120549254144" cx="316.63786429876313" cy="38.719410616745584" opacity="0.6684129949424077"></circle><circle r="4.74132128043112" cx="760.1936543792572" cy="610.6901497970047" opacity="0.36672470899142695"></circle><circle r="8.273143586813065" cx="173.10962068623544" cy="275.46535597059784" opacity="0.6509907272367448"></circle><circle r="6.256891476429202" cx="349.7383229620043" cy="688.8596730539945" opacity="0.6758266728227297"></circle><circle r="8.6991611689409" cx="288.80549017760546" cy="207.1822989531301" opacity="0.2769971583149011"></circle><circle r="6.659276491174176" cx="640.9275077741717" cy="144.07774333464425" opacity="0.5702038368453557"></circle><circle r="6.850990101778244" cx="483.7476704453338" cy="192.11543736072247" opacity="0.7182322082718617"></circle><circle r="3.618273717156498" cx="620.6292875127633" cy="460.10903151275096" opacity="0.49225967859930286"></circle><circle r="9.741243036916973" cx="428.67838393557406" cy="466.3253346422235" opacity="0.9551265178354589"></circle><circle r="8.504761426625489" cx="398.4604257030842" cy="776.8744978935371" opacity="0.5733596835730064"></circle><circle r="5.862911995819302" cx="321.12132305492764" cy="72.13766397275172" opacity="0.8667014038978204"></circle><circle r="4.175931824761235" cx="785.6540734720478" cy="785.5625318364257" opacity="0.10300705360138936"></circle><circle r="3.17831034292826" cx="483.28120864180585" cy="594.1846877920416" opacity="0.28986013845038694"></circle><circle r="6.0429765560758995" cx="429.5934393205652" cy="787.7153402542999" opacity="0.9700663666462971"></circle><circle r="5.799760712222768" cx="94.60105453085693" cy="754.5874992483399" opacity="0.5537605712255942"></circle><circle r="4.335682033417694" cx="608.8664706183687" cy="378.898692201994" opacity="0.9986884705866377"></circle><circle r="5.453491513799101" cx="10.740631448772316" cy="734.1765572372425" opacity="0.8742161498879228"></circle><circle r="7.101255194622863" cx="619.8818342771439" cy="565.2422613819228" opacity="0.2743950998919158"></circle><circle r="6.908955138382712" cx="397.57428532404026" cy="141.20957389690702" opacity="0.33273174292684515"></circle><circle r="6.043370155638863" cx="744.8552898280776" cy="355.06343999607714" opacity="0.2508369259665437"></circle><circle r="7.053478938084371" cx="753.4063794600195" cy="760.7729665077276" opacity="0.999428479123689"></circle><circle r="3.7017655291881892" cx="66.97376772122193" cy="754.9125210489046" opacity="0.651411818813816"></circle><circle r="2.8199241689040044" cx="54.872835359843975" cy="775.3938774097356" opacity="0.7279369539691195"></circle><circle r="4.592007020239362" cx="744.5259594340781" cy="186.84495081730785" opacity="0.9305444562712297"></circle><circle r="4.0045195678377565" cx="498.5868037821087" cy="535.4313025179861" opacity="0.12942120168315255"></circle><circle r="5.564553292885677" cx="536.8786679929304" cy="118.77379686824304" opacity="0.29526300747359435"></circle><circle r="5.91325922428416" cx="692.5649268224334" cy="30.334995022522946" opacity="0.47964457917184666"></circle><circle r="6.1399864833373385" cx="87.80925654420864" cy="724.0789514643963" opacity="0.783939938779506"></circle><circle r="6.538348192938706" cx="183.6727720227645" cy="371.9034383188259" opacity="0.4038163865839485"></circle><circle r="3.7724613016412887" cx="499.9204333012106" cy="573.4042207170394" opacity="0.9958340737375424"></circle><circle r="8.35027546310544" cx="559.4779672611825" cy="163.41642480593765" opacity="0.4763156818656551"></circle><circle r="4.684609211871476" cx="280.676257231568" cy="643.9109849980712" opacity="0.5719043384677208"></circle><circle r="6.8146212362336644" cx="215.82345069040073" cy="571.2288559254109" opacity="0.4210307058584787"></circle><circle r="6.42926836991876" cx="387.07994928408993" cy="298.2345018171779" opacity="0.2659267695705789"></circle><circle r="5.577709074061377" cx="278.72869338827405" cy="133.52851508557043" opacity="0.4308250079798971"></circle><circle r="4.334873126687777" cx="403.73073261447206" cy="322.00721280663544" opacity="0.5544845514946092"></circle><circle r="3.467528612605399" cx="389.9248343521585" cy="402.03668139755473" opacity="0.3325875439838188"></circle><circle r="4.722864905072833" cx="629.9032967609644" cy="13.13200626367841" opacity="0.410548974430332"></circle><circle r="6.302267821760475" cx="252.91085733088286" cy="553.2052327312879" opacity="0.8607940023655426"></circle><circle r="4.3234061433285245" cx="224.01790642358986" cy="300.94405056499085" opacity="0.9847178014364892"></circle><circle r="3.6124602316845404" cx="669.2499994305351" cy="49.77645816818476" opacity="0.8034262922043978"></circle></g></svg>